<svg width="2155" height="854" viewBox="0 0 2155 854" fill="none" xmlns="http://www.w3.org/2000/svg">
<path d="M 54.879 8.978 C 40.806 24.697, 30.710 41.734, 24.536 60.187 C 19.076 76.503, 17.952 83.022, 17.324 102 C 16.765 118.926, 16.636 119.766, 13.404 127.619 C -1.778 164.501, -0.112 209.731, 17.746 245.500 C 24.086 258.198, 41.170 282.164, 42.753 280.580 C 43.032 280.301, 41.450 276.569, 39.237 272.286 C 25.012 244.758, 20.503 208.004, 27.587 177.313 C 29.934 167.142, 29.880 167.160, 34.194 175.110 C 40.992 187.638, 48.156 197.154, 59 208.059 C 83.281 232.475, 112.276 246.443, 146.414 250.170 L 157.329 251.362 151.393 256.931 C 136.670 270.744, 115.154 283.555, 97 289.317 C 77.116 295.629, 51.868 297.848, 32.101 295.023 C 28.031 294.441, 24.495 294.171, 24.243 294.424 C 23.018 295.649, 45.659 303.067, 58.536 305.660 C 70.814 308.132, 97.902 308.131, 110.346 305.658 C 145.805 298.611, 178.757 278.297, 199.117 250.932 C 203.474 245.076, 204.621 244.170, 209.685 242.573 C 218.874 239.677, 237.827 229.529, 247.176 222.500 C 260.565 212.435, 280.641 191.308, 278.681 189.348 C 278.351 189.017, 275.925 190.529, 273.290 192.708 C 260.871 202.980, 240.974 213.589, 225.164 218.370 C 217.852 220.581, 216.914 220.683, 217.531 219.195 C 224.960 201.271, 228.269 184.521, 228.336 164.500 C 228.449 130.537, 218.954 102.344, 198.275 75.242 L 191.786 66.737 195.519 67.438 C 217.917 71.639, 243.309 84.080, 261.637 99.832 C 266.330 103.865, 270.364 106.970, 270.602 106.731 C 270.840 106.493, 267.707 101.844, 263.640 96.399 C 244.505 70.783, 217.796 51.985, 188.513 43.524 C 178.688 40.685, 164.592 38, 159.515 38 C 157.742 38, 152.064 36.028, 146.896 33.619 C 136.524 28.782, 118.602 22.734, 116.100 23.226 C 115.206 23.401, 117.838 25.345, 122.060 27.626 C 126.218 29.874, 131.489 33.066, 133.774 34.721 L 137.928 37.731 130.683 38.387 C 101.712 41.012, 69.576 56.358, 46.015 78.818 C 42.449 82.218, 39.379 85, 39.193 85 C 38.509 85, 40.181 65.237, 41.561 57 C 44.562 39.096, 51.080 21.639, 60.509 6.250 C 64.393 -0.089, 61.928 1.106, 54.879 8.978 M 149 66.074 C 139.248 67.369, 124.210 71.415, 114.073 75.471 C 106.188 78.626, 101.795 80.837, 91.029 87.069 C 86.141 89.899, 70.384 102.830, 64.786 108.605 C 61.644 111.847, 56.565 117.650, 53.500 121.500 C 46.919 129.768, 46.890 129.035, 54.403 144.500 C 70.810 178.277, 101.400 205.102, 136.943 216.883 C 148.804 220.815, 166.330 224.212, 172.666 223.808 L 177.500 223.500 181.233 216 C 185.765 206.896, 191.284 190.511, 193.698 179 C 195.050 172.549, 195.461 166.161, 195.402 152.500 C 195.319 133.145, 193.838 123.452, 188.487 107.234 C 185.265 97.470, 176.227 79.336, 170.676 71.500 L 166.426 65.500 160.963 65.355 C 157.958 65.276, 152.575 65.599, 149 66.074 M 447.420 203.829 C 443.294 206.421, 441.648 210.743, 442.209 217.513 C 442.745 223.967, 445.521 227.632, 450.595 228.584 C 455.340 229.474, 460.753 227.378, 462.517 223.966 C 464.686 219.773, 464.383 219, 460.567 219 C 458.013 219, 456.972 219.512, 456.500 221 C 455.670 223.615, 451.423 223.658, 450.035 221.066 C 449.466 220.002, 449 217.497, 449 215.500 C 449 213.503, 449.466 210.998, 450.035 209.934 C 451.380 207.422, 454.644 207.457, 456.232 210 C 457.066 211.335, 458.564 212, 460.741 212 C 464.832 212, 464.989 210.138, 461.250 205.954 C 457.658 201.935, 451.856 201.043, 447.420 203.829 M 471.315 203.416 C 467.245 205.247, 464.999 209.618, 465.004 215.700 C 465.011 224.396, 470.828 230.005, 478.371 228.590 C 491.174 226.188, 490.773 204.232, 477.893 202.452 C 476.027 202.194, 473.067 202.628, 471.315 203.416 M 518.277 203.916 C 511.698 208.043, 513.098 213.827, 521.585 217.580 C 524.696 218.956, 527 220.618, 527 221.487 C 527 223.773, 522.279 223.390, 521 221 C 520.299 219.690, 518.906 219, 516.965 219 C 514.528 219, 514 219.414, 514 221.326 C 514 222.605, 515.161 224.742, 516.581 226.076 C 518.643 228.014, 520.227 228.500, 524.476 228.500 C 530.955 228.500, 534 226.262, 534 221.500 C 534 217.837, 531.797 215.463, 525.650 212.500 C 523.367 211.400, 521.595 210.050, 521.710 209.500 C 522.067 207.805, 525.966 207.749, 526.611 209.430 C 527.523 211.804, 534 211.580, 534 209.174 C 534 203.704, 523.966 200.349, 518.277 203.916 M 637.314 203.894 C 632.981 206.613, 632 208.832, 632 215.918 C 632 221.106, 632.392 222.407, 634.750 225.046 C 638.183 228.888, 643.884 229.911, 649.286 227.654 C 652.996 226.104, 653 226.096, 653 219.999 L 653 213.895 647.750 214.198 C 643.176 214.461, 642.459 214.790, 642.180 216.750 C 641.937 218.461, 642.356 219, 643.930 219 C 645.333 219, 646 219.644, 646 221 C 646 222.459, 645.333 223, 643.535 223 C 640.553 223, 639 220.432, 639 215.500 C 639 213.503, 639.466 210.998, 640.035 209.934 C 641.380 207.422, 644.644 207.457, 646.232 210 C 646.991 211.215, 648.564 212, 650.241 212 C 652.462 212, 653 211.547, 653 209.674 C 653 203.768, 643.244 200.173, 637.314 203.894 M 490 215.500 L 490 228 493.452 228 L 496.905 228 497.202 221.874 L 497.500 215.748 500.937 221.874 C 504.208 227.703, 504.560 228, 508.187 228 L 512 228 512 215.500 L 512 203 508.546 203 L 505.091 203 504.796 209.750 L 504.500 216.500 500.701 209.750 C 497.158 203.454, 496.670 203, 493.451 203 L 490 203 490 215.500 M 536 211.935 C 536 216.849, 536.431 222.003, 536.957 223.387 C 539.112 229.056, 549.760 230.682, 554.397 226.050 C 556.213 224.236, 556.547 222.520, 556.841 213.475 L 557.182 203 553.591 203 L 550 203 550 211.418 C 550 221.420, 549.522 223, 546.500 223 C 543.478 223, 543 221.420, 543 211.418 L 543 203 539.500 203 L 536 203 536 211.935 M 559 215.500 L 559 228 568 228 C 576.933 228, 577 227.981, 577 225.500 C 577 223.167, 576.667 223, 572 223 L 567 223 567 213 L 567 203 563 203 L 559 203 559 215.500 M 574 205.500 C 574 207.690, 574.433 208, 577.500 208 L 581 208 581 218 L 581 228 584.500 228 L 588 228 588 218 L 588 208 592 208 C 595.600 208, 596 207.750, 596 205.500 L 596 203 585 203 L 574 203 574 205.500 M 597 215.500 L 597 228 601 228 L 605 228 605 215.500 L 605 203 601 203 L 597 203 597 215.500 M 608 215.500 L 608 228 611.500 228 L 615 228 615.035 221.750 L 615.070 215.500 618.626 221.750 C 621.897 227.499, 622.456 228, 625.591 228 L 629 228 629 215.500 L 629 203 625.500 203 L 622 203 621.965 209.250 L 621.930 215.500 618.374 209.250 C 615.103 203.501, 614.544 203, 611.409 203 L 608 203 608 215.500 M 473.035 209.934 C 472.466 210.998, 472 213.503, 472 215.500 C 472 222.176, 475.831 225.319, 479.128 221.346 C 480.824 219.301, 480.763 211.624, 479.033 209.539 C 477.269 207.414, 474.278 207.611, 473.035 209.934" stroke="none" fill="#fc4d04" fill-rule="evenodd"/><path d="M 474.627 127.409 C 468.638 129.636, 463.786 134.141, 460.500 140.528 C 457.617 146.131, 457.500 146.869, 457.500 159.429 C 457.500 170.961, 457.771 173.089, 459.804 177.500 C 461.071 180.250, 463.321 183.794, 464.804 185.376 C 474.536 195.759, 495.884 195.512, 505.467 184.905 C 509.361 180.595, 510.337 178.597, 511.405 172.750 L 512.091 169 503.657 169 L 495.223 169 494.565 172.508 C 493.764 176.773, 490.631 179.041, 485.241 179.256 C 476.370 179.610, 473.528 174.013, 474.197 157.506 C 474.782 143.051, 477.128 139.503, 485.887 139.825 C 490.708 140.002, 493.791 142.371, 494.565 146.492 L 495.223 150 503.611 150 C 508.225 150, 512 149.632, 512 149.182 C 512 148.731, 511.306 146.025, 510.457 143.167 C 508.627 137.005, 504.244 131.685, 498.595 128.768 C 493.319 126.045, 480.285 125.306, 474.627 127.409 M 534.885 127.320 C 526.695 130.382, 520.444 137.136, 517.446 146.162 C 516.196 149.926, 515.874 153.720, 516.156 161.352 C 516.476 169.998, 516.952 172.383, 519.327 177.237 C 528.001 194.965, 552.153 198.683, 565.129 184.288 C 570.659 178.153, 573 170.780, 573 159.500 C 573 144.662, 568.417 135.259, 558.293 129.326 C 552.794 126.103, 540.871 125.081, 534.885 127.320 M 279 159.436 L 279 192 295.318 192 C 314.717 192, 320.222 190.789, 324.864 185.502 C 331.256 178.222, 331.353 168.117, 325.091 161.856 C 321.784 158.549, 321.605 158.103, 323.189 157.114 C 326.529 155.028, 328.246 150.074, 327.794 143.826 C 327.271 136.601, 325.071 133.346, 318.448 130 C 313.836 127.670, 312.330 127.479, 296.250 127.186 L 279 126.871 279 159.436 M 338 159.500 L 338 192 346.500 192 L 355 192 355 159.500 L 355 127 346.500 127 L 338 127 338 159.500 M 364 159.500 L 364 192 386 192 L 408 192 408 185.500 L 408 179 394.500 179 L 381 179 381 153 L 381 127 372.500 127 L 364 127 364 159.500 M 413 159.500 L 413 192 434.500 192 L 456 192 456 185.500 L 456 179 443 179 L 430 179 430 153 L 430 127 421.500 127 L 413 127 413 159.500 M 580 159.500 L 580 192 588.650 192 L 597.300 192 596.592 174.334 C 596.202 164.618, 595.676 155.281, 595.423 153.584 C 594.864 149.841, 596.569 154.406, 603.889 176.250 L 609.166 192 615 192 L 620.834 192 626.111 176.250 C 629.014 167.588, 632.208 158.250, 633.210 155.500 L 635.032 150.500 634.546 154.500 C 634.278 156.700, 633.751 166.037, 633.375 175.250 L 632.690 192 641.345 192 L 650 192 650 159.500 L 650 127 639.479 127 C 629.514 127, 628.907 127.119, 628.012 129.250 C 627.492 130.488, 624.466 139.713, 621.287 149.750 C 618.109 159.787, 615.279 168, 615 168 C 614.520 168, 603.904 135.621, 602.460 129.750 L 601.783 127 590.892 127 L 580 127 580 159.500 M 295 146.384 L 295 153 301.066 153 C 309.193 153, 311 151.925, 311 147.087 C 311 141.992, 309.161 140.669, 301.395 140.174 L 295 139.767 295 146.384 M 538.750 141.080 C 534.827 143.365, 533.519 147.971, 533.519 159.500 C 533.519 172.424, 534.957 176.248, 540.720 178.656 C 543.791 179.939, 544.818 179.960, 547.862 178.801 C 553.151 176.789, 555.165 172.544, 555.745 162.186 C 556.591 147.073, 553.081 139.972, 544.795 140.030 C 542.433 140.047, 539.712 140.519, 538.750 141.080 M 295 172 L 295 179 301.545 179 C 307.239 179, 308.425 178.666, 310.657 176.434 C 312.733 174.358, 313.104 173.259, 312.598 170.684 C 311.702 166.120, 309.576 165, 301.809 165 L 295 165 295 172 M 653.300 220 C 653.300 223.025, 653.487 224.262, 653.716 222.750 C 653.945 221.238, 653.945 218.762, 653.716 217.250 C 653.487 215.738, 653.300 216.975, 653.300 220" stroke="none" fill="#fcfcfc" fill-rule="evenodd"/></svg>